# xmcd
#
# Track frame offsets:
#	150
#	12654
#	32821
#	52173
#	76243
#	97562
#	119927
#	136889
#	153162
#	176518
#	197560
#	220368
#	240168
#	261127
#	279312
#	297306
#	317829
#	331268
#
# Disc length: 4695 seconds
#
# Revision: 0
# Processed by: cddbd v1.5.1PL2 Copyright (c) Steve Scherf et al.
# Submitted via: dBpowerAMP V4.0
#
DISCID=fd125512
DTITLE=蔡琴 - 抒琴時間
DYEAR=1900
DGENRE=
TTITLE0=被遺忘的時光
TTITLE1=點亮霓虹燈
TTITLE2=恰似你的溫柔
TTITLE3=示愛
TTITLE4=抉擇
TTITLE5=新感情舊回憶
TTITLE6=跟我說愛我
TTITLE7=香煙迷蒙了眼睛
TTITLE8=愛你太濃
TTITLE9=心太急
TTITLE10=天臺的月光
TTITLE11=那些事那些人
TTITLE12=你是最冷的情人
TTITLE13=傻話
TTITLE14=心上沒有人
TTITLE15=隨風去
TTITLE16=情人的眼淚
TTITLE17=我有一段情
EXTD=
EXTT0=
EXTT1=
EXTT2=
EXTT3=
EXTT4=
EXTT5=
EXTT6=
EXTT7=
EXTT8=
EXTT9=
EXTT10=
EXTT11=
EXTT12=
EXTT13=
EXTT14=
EXTT15=
EXTT16=
EXTT17=
PLAYORDER=
